<svg width="128" height="128" viewBox="0 0 128 128" fill="none" xmlns="http://www.w3.org/2000/svg">
  <defs>
    <linearGradient id="grad1" x1="0%" y1="0%" x2="100%" y2="100%">
      <stop offset="0%" style="stop-color:#667eea;stop-opacity:1" />
      <stop offset="100%" style="stop-color:#764ba2;stop-opacity:1" />
    </linearGradient>
  </defs>
  
  <!-- Фон -->
  <rect width="128" height="128" rx="24" fill="url(#grad1)"/>
  
  <!-- Иконка камеры -->
  <g transform="translate(32, 32)">
    <!-- Корпус камеры -->
    <rect x="8" y="20" width="48" height="32" rx="4" fill="white" opacity="0.9"/>
    
    <!-- Объектив -->
    <circle cx="32" cy="36" r="8" fill="white" opacity="0.8"/>
    <circle cx="32" cy="36" r="6" fill="#667eea"/>
    
    <!-- Вспышка -->
    <rect x="44" y="24" width="8" height="6" rx="2" fill="white" opacity="0.7"/>
    
    <!-- Кнопка -->
    <rect x="12" y="28" width="4" height="4" rx="1" fill="#764ba2"/>
    
    <!-- Экран -->
    <rect x="16" y="40" width="32" height="8" rx="2" fill="#f8f9fa"/>
  </g>
  
  <!-- Документ -->
  <g transform="translate(70, 70)">
    <rect x="0" y="0" width="40" height="50" rx="4" fill="white" opacity="0.9"/>
    <rect x="8" y="8" width="24" height="2" fill="#667eea"/>
    <rect x="8" y="14" width="20" height="2" fill="#667eea" opacity="0.7"/>
    <rect x="8" y="20" width="16" height="2" fill="#667eea" opacity="0.5"/>
    <rect x="8" y="26" width="18" height="2" fill="#667eea" opacity="0.7"/>
    <rect x="8" y="32" width="12" height="2" fill="#667eea" opacity="0.5"/>
  </g>
</svg> 